<?xml version="1.0" encoding="UTF-8" standalone="no"?><!DOCTYPE svg PUBLIC "-//W3C//DTD SVG 1.1//EN" "http://www.w3.org/Graphics/SVG/1.1/DTD/svg11.dtd"><!-- Generated by graphviz version 2.40.1 (20161225.0304)
 --><!-- Title: mindmap Pages: 1 --><svg xmlns="http://www.w3.org/2000/svg" xmlns:xlink="http://www.w3.org/1999/xlink" width="485pt" height="422pt" viewBox="0.00 0.00 484.97 422.00">
<g id="graph0" class="graph" transform="scale(1 1) rotate(0) translate(4 418)">
<title>mindmap</title>
<polygon fill="#ffffff" stroke="transparent" points="-4,4 -4,-418 480.9736,-418 480.9736,4 -4,4"/>
<!-- Artificial Neural Networks -->
<g id="node1" class="node">
<title>Artificial Neural Networks</title>
<polygon fill="none" stroke="#000000" points="166.731,-225 .0896,-225 .0896,-189 166.731,-189 166.731,-225"/>
<text text-anchor="middle" x="83.4103" y="-202.8" font-family="Times,serif" font-size="14.00" fill="#000000">Artificial Neural Networks</text>
</g>
<!-- Feedforward Neural Networks (FNN) -->
<g id="node2" class="node">
<title>Feedforward Neural Networks (FNN)</title>
<polygon fill="none" stroke="#000000" points="453.7396,-414 226.0546,-414 226.0546,-378 453.7396,-378 453.7396,-414"/>
<text text-anchor="middle" x="339.8971" y="-391.8" font-family="Times,serif" font-size="14.00" fill="#000000">Feedforward Neural Networks (FNN)</text>
</g>
<!-- Artificial Neural Networks&#45;&gt;Feedforward Neural Networks (FNN) -->
<g id="edge1" class="edge">
<title>Artificial Neural Networks-&gt;Feedforward Neural Networks (FNN)</title>
<path fill="none" stroke="#000000" d="M91.1987,-225.0441C106.9196,-259.1517 145.8683,-332.8925 202.8206,-369 207.1897,-371.77 211.7823,-374.2658 216.5307,-376.514"/>
<polygon fill="#000000" stroke="#000000" points="215.269,-379.7816 225.8367,-380.539 218.0478,-373.3568 215.269,-379.7816"/>
</g>
<!-- Recurrent Neural Networks (RNN) -->
<g id="node3" class="node">
<title>Recurrent Neural Networks (RNN)</title>
<polygon fill="none" stroke="#000000" points="446.4709,-360 233.3233,-360 233.3233,-324 446.4709,-324 446.4709,-360"/>
<text text-anchor="middle" x="339.8971" y="-337.8" font-family="Times,serif" font-size="14.00" fill="#000000">Recurrent Neural Networks (RNN)</text>
</g>
<!-- Artificial Neural Networks&#45;&gt;Recurrent Neural Networks (RNN) -->
<g id="edge2" class="edge">
<title>Artificial Neural Networks-&gt;Recurrent Neural Networks (RNN)</title>
<path fill="none" stroke="#000000" d="M97.8716,-225.1701C118.4421,-249.6819 158.5953,-292.8196 202.8206,-315 209.3792,-318.2893 216.3017,-321.1783 223.4107,-323.7156"/>
<polygon fill="#000000" stroke="#000000" points="222.6102,-327.1375 233.2036,-326.9621 224.813,-320.4931 222.6102,-327.1375"/>
</g>
<!-- Convolutional Neural Networks (CNN) -->
<g id="node4" class="node">
<title>Convolutional Neural Networks (CNN)</title>
<polygon fill="none" stroke="#000000" points="458.8923,-306 220.9019,-306 220.9019,-270 458.8923,-270 458.8923,-306"/>
<text text-anchor="middle" x="339.8971" y="-283.8" font-family="Times,serif" font-size="14.00" fill="#000000">Convolutional Neural Networks (CNN)</text>
</g>
<!-- Artificial Neural Networks&#45;&gt;Convolutional Neural Networks (CNN) -->
<g id="edge3" class="edge">
<title>Artificial Neural Networks-&gt;Convolutional Neural Networks (CNN)</title>
<path fill="none" stroke="#000000" d="M117.5835,-225.0009C141.0213,-236.7059 173.132,-251.5033 202.8206,-261 210.1303,-263.3382 217.727,-265.5108 225.4282,-267.5232"/>
<polygon fill="#000000" stroke="#000000" points="224.6735,-270.9423 235.2252,-269.9868 226.3807,-264.1536 224.6735,-270.9423"/>
</g>
<!-- Long Short&#45;Term Memory Networks (LSTM) -->
<g id="node5" class="node">
<title>Long Short-Term Memory Networks (LSTM)</title>
<polygon fill="none" stroke="#000000" points="477.0501,-252 202.7441,-252 202.7441,-216 477.0501,-216 477.0501,-252"/>
<text text-anchor="middle" x="339.8971" y="-229.8" font-family="Times,serif" font-size="14.00" fill="#000000">Long Short-Term Memory Networks (LSTM)</text>
</g>
<!-- Artificial Neural Networks&#45;&gt;Long Short&#45;Term Memory Networks (LSTM) -->
<g id="edge4" class="edge">
<title>Artificial Neural Networks-&gt;Long Short-Term Memory Networks (LSTM)</title>
<path fill="none" stroke="#000000" d="M167.0388,-215.8034C175.2344,-216.6662 183.7077,-217.5582 192.2997,-218.4626"/>
<polygon fill="#000000" stroke="#000000" points="192.1194,-221.9629 202.4309,-219.5291 192.8523,-215.0014 192.1194,-221.9629"/>
</g>
<!-- Gated Recurrent Unit Networks (GRU) -->
<g id="node6" class="node">
<title>Gated Recurrent Unit Networks (GRU)</title>
<polygon fill="none" stroke="#000000" points="458.1982,-198 221.596,-198 221.596,-162 458.1982,-162 458.1982,-198"/>
<text text-anchor="middle" x="339.8971" y="-175.8" font-family="Times,serif" font-size="14.00" fill="#000000">Gated Recurrent Unit Networks (GRU)</text>
</g>
<!-- Artificial Neural Networks&#45;&gt;Gated Recurrent Unit Networks (GRU) -->
<g id="edge5" class="edge">
<title>Artificial Neural Networks-&gt;Gated Recurrent Unit Networks (GRU)</title>
<path fill="none" stroke="#000000" d="M167.0388,-198.1966C181.1732,-196.7086 196.1337,-195.1338 211.1042,-193.5578"/>
<polygon fill="#000000" stroke="#000000" points="211.8813,-196.9955 221.46,-192.4677 211.1485,-190.0339 211.8813,-196.9955"/>
</g>
<!-- Autoencoders -->
<g id="node7" class="node">
<title>Autoencoders</title>
<polygon fill="none" stroke="#000000" points="386.6436,-144 293.1506,-144 293.1506,-108 386.6436,-108 386.6436,-144"/>
<text text-anchor="middle" x="339.8971" y="-121.8" font-family="Times,serif" font-size="14.00" fill="#000000">Autoencoders</text>
</g>
<!-- Artificial Neural Networks&#45;&gt;Autoencoders -->
<g id="edge6" class="edge">
<title>Artificial Neural Networks-&gt;Autoencoders</title>
<path fill="none" stroke="#000000" d="M117.5835,-188.9991C141.0213,-177.2941 173.132,-162.4967 202.8206,-153 228.6074,-144.7514 257.9672,-138.5629 282.8817,-134.2061"/>
<polygon fill="#000000" stroke="#000000" points="283.6302,-137.6292 292.9056,-132.509 282.4617,-130.7275 283.6302,-137.6292"/>
</g>
<!-- Generative Adversarial Networks (GAN) -->
<g id="node8" class="node">
<title>Generative Adversarial Networks (GAN)</title>
<polygon fill="none" stroke="#000000" points="463.666,-90 216.1282,-90 216.1282,-54 463.666,-54 463.666,-90"/>
<text text-anchor="middle" x="339.8971" y="-67.8" font-family="Times,serif" font-size="14.00" fill="#000000">Generative Adversarial Networks (GAN)</text>
</g>
<!-- Artificial Neural Networks&#45;&gt;Generative Adversarial Networks (GAN) -->
<g id="edge7" class="edge">
<title>Artificial Neural Networks-&gt;Generative Adversarial Networks (GAN)</title>
<path fill="none" stroke="#000000" d="M97.8716,-188.8299C118.4421,-164.3181 158.5953,-121.1804 202.8206,-99 206.6013,-97.1039 210.5029,-95.3408 214.4914,-93.7014"/>
<polygon fill="#000000" stroke="#000000" points="215.8445,-96.9313 223.9398,-90.0963 213.3491,-90.3912 215.8445,-96.9313"/>
</g>
<!-- Transformers -->
<g id="node9" class="node">
<title>Transformers</title>
<polygon fill="none" stroke="#000000" points="385.802,-36 293.9922,-36 293.9922,0 385.802,0 385.802,-36"/>
<text text-anchor="middle" x="339.8971" y="-13.8" font-family="Times,serif" font-size="14.00" fill="#000000">Transformers</text>
</g>
<!-- Artificial Neural Networks&#45;&gt;Transformers -->
<g id="edge8" class="edge">
<title>Artificial Neural Networks-&gt;Transformers</title>
<path fill="none" stroke="#000000" d="M91.1987,-188.9559C106.9196,-154.8483 145.8683,-81.1075 202.8206,-45 226.7827,-29.8082 257.4658,-22.8623 283.7253,-19.7986"/>
<polygon fill="#000000" stroke="#000000" points="284.3229,-23.2563 293.9226,-18.7736 283.6227,-16.2914 284.3229,-23.2563"/>
</g>
</g>
</svg>