<?xml version="1.0" encoding="UTF-8" standalone="no"?><!DOCTYPE svg PUBLIC "-//W3C//DTD SVG 1.1//EN" "http://www.w3.org/Graphics/SVG/1.1/DTD/svg11.dtd"><!-- Generated by graphviz version 2.40.1 (20161225.0304)
 --><!-- Title: CNN_Architectures Pages: 1 --><svg xmlns="http://www.w3.org/2000/svg" xmlns:xlink="http://www.w3.org/1999/xlink" width="352pt" height="263pt" viewBox="0.00 0.00 352.34 263.00">
<g id="graph0" class="graph" transform="scale(1 1) rotate(0) translate(4 259)">
<title>CNN_Architectures</title>
<polygon fill="#ffffff" stroke="transparent" points="-4,4 -4,-259 348.3428,-259 348.3428,4 -4,4"/>
<g id="clust1" class="cluster">
<title>cluster_CNN</title>
<polygon fill="none" stroke="#000000" points="245.9936,-8 245.9936,-247 337.3428,-247 337.3428,-8 245.9936,-8"/>
<text text-anchor="middle" x="291.6682" y="-16.2" font-family="Times,serif" font-size="14.00" fill="#000000">Architectures</text>
</g>
<!-- CNN -->
<g id="node1" class="node">
<title>CNN</title>
<polygon fill="none" stroke="#000000" points="217.9904,-158 .0032,-158 .0032,-122 217.9904,-122 217.9904,-158"/>
<text text-anchor="middle" x="108.9968" y="-136.4" font-family="Arial" font-size="12.00" fill="#000000">Convolutional Neural Networks (CNN)</text>
</g>
<!-- AlexNet -->
<g id="node2" class="node">
<title>AlexNet</title>
<polygon fill="none" stroke="#000000" points="320.673,-239 262.6634,-239 262.6634,-203 320.673,-203 320.673,-239"/>
<text text-anchor="middle" x="291.6682" y="-217.4" font-family="Arial" font-size="12.00" fill="#000000">AlexNet</text>
</g>
<!-- CNN&#45;&gt;AlexNet -->
<g id="edge1" class="edge">
<title>CNN-&gt;AlexNet</title>
<path fill="none" stroke="#000000" d="M109.3428,-158.3802C109.3428,-182.2785 109.3428,-221 109.3428,-221 109.3428,-221 254.3745,-221 254.3745,-221"/>
<polygon fill="#000000" stroke="#000000" points="262.3745,-221 254.3745,-224.6001 258.3745,-221 254.3745,-221.0001 254.3745,-221.0001 254.3745,-221.0001 258.3745,-221 254.3744,-217.4001 262.3745,-221 262.3745,-221"/>
</g>
<!-- VGG -->
<g id="node3" class="node">
<title>VGG</title>
<polygon fill="none" stroke="#000000" points="318.6682,-185 264.6682,-185 264.6682,-149 318.6682,-149 318.6682,-185"/>
<text text-anchor="middle" x="291.6682" y="-163.4" font-family="Arial" font-size="12.00" fill="#000000">VGG</text>
</g>
<!-- CNN&#45;&gt;VGG -->
<g id="edge2" class="edge">
<title>CNN-&gt;VGG</title>
<path fill="none" stroke="#000000" d="M218.1584,-153.5C218.1584,-153.5 256.6015,-153.5 256.6015,-153.5"/>
<polygon fill="#000000" stroke="#000000" points="264.6015,-153.5 256.6016,-157.1001 260.6015,-153.5 256.6015,-153.5001 256.6015,-153.5001 256.6015,-153.5001 260.6015,-153.5 256.6015,-149.9001 264.6015,-153.5 264.6015,-153.5"/>
</g>
<!-- GoogleNet -->
<g id="node4" class="node">
<title>GoogleNet</title>
<polygon fill="none" stroke="#000000" points="328.5182,-131 254.8182,-131 254.8182,-95 328.5182,-95 328.5182,-131"/>
<text text-anchor="middle" x="291.6682" y="-109.4" font-family="Arial" font-size="12.00" fill="#000000">GoogleNet</text>
</g>
<!-- CNN&#45;&gt;GoogleNet -->
<g id="edge3" class="edge">
<title>CNN-&gt;GoogleNet</title>
<path fill="none" stroke="#000000" d="M218.1584,-126.5C218.1584,-126.5 246.8101,-126.5 246.8101,-126.5"/>
<polygon fill="#000000" stroke="#000000" points="254.8101,-126.5 246.8102,-130.1001 250.8101,-126.5 246.8101,-126.5001 246.8101,-126.5001 246.8101,-126.5001 250.8101,-126.5 246.8101,-122.9001 254.8101,-126.5 254.8101,-126.5"/>
</g>
<!-- ResNet -->
<g id="node5" class="node">
<title>ResNet</title>
<polygon fill="none" stroke="#000000" points="319.6702,-77 263.6662,-77 263.6662,-41 319.6702,-41 319.6702,-77"/>
<text text-anchor="middle" x="291.6682" y="-55.4" font-family="Arial" font-size="12.00" fill="#000000">ResNet</text>
</g>
<!-- CNN&#45;&gt;ResNet -->
<g id="edge4" class="edge">
<title>CNN-&gt;ResNet</title>
<path fill="none" stroke="#000000" d="M109.3428,-121.6198C109.3428,-97.7215 109.3428,-59 109.3428,-59 109.3428,-59 255.5794,-59 255.5794,-59"/>
<polygon fill="#000000" stroke="#000000" points="263.5794,-59 255.5795,-62.6001 259.5794,-59 255.5794,-59.0001 255.5794,-59.0001 255.5794,-59.0001 259.5794,-59 255.5794,-55.4001 263.5794,-59 263.5794,-59"/>
</g>
</g>
</svg>