<?xml version="1.0" encoding="UTF-8" standalone="no"?><!DOCTYPE svg PUBLIC "-//W3C//DTD SVG 1.1//EN" "http://www.w3.org/Graphics/SVG/1.1/DTD/svg11.dtd"><!-- Generated by graphviz version 2.40.1 (20161225.0304)
 --><!-- Title: FNN_Arquitecturas Pages: 1 --><svg xmlns="http://www.w3.org/2000/svg" xmlns:xlink="http://www.w3.org/1999/xlink" width="517pt" height="371pt" viewBox="0.00 0.00 516.66 371.00">
<g id="graph0" class="graph" transform="scale(1 1) rotate(0) translate(4 367)">
<title>FNN_Arquitecturas</title>
<polygon fill="#ffffff" stroke="transparent" points="-4,4 -4,-367 512.6564,-367 512.6564,4 -4,4"/>
<g id="clust1" class="cluster">
<title>cluster_FNN</title>
<polygon fill="none" stroke="#000000" points="8,-8 8,-355 500.6564,-355 500.6564,-8 8,-8"/>
<text text-anchor="middle" x="254.3282" y="-16.2" font-family="Times,serif" font-size="14.00" fill="#000000">Feedforward Neural Networks (FNN)</text>
</g>
<!-- FNN -->
<g id="node1" class="node">
<title>FNN</title>
<polygon fill="none" stroke="#000000" points="227.4844,-212 15.8384,-212 15.8384,-176 227.4844,-176 227.4844,-212"/>
<text text-anchor="middle" x="121.6614" y="-190.4" font-family="Arial" font-size="12.00" fill="#000000">Neural Networks Feedforward (FNN)</text>
</g>
<!-- Machines Learning Extreme (ELM) -->
<g id="node2" class="node">
<title>Machines Learning Extreme (ELM)</title>
<polygon fill="none" stroke="#000000" points="478.8443,-77 277.1349,-77 277.1349,-41 478.8443,-41 478.8443,-77"/>
<text text-anchor="middle" x="377.9896" y="-55.4" font-family="Arial" font-size="12.00" fill="#000000">Machines Learning Extreme (ELM)</text>
</g>
<!-- FNN&#45;&gt;Machines Learning Extreme (ELM) -->
<g id="edge1" class="edge">
<title>FNN-&gt;Machines Learning Extreme (ELM)</title>
<path fill="none" stroke="#000000" d="M86.6564,-175.7933C86.6564,-138.9441 86.6564,-59 86.6564,-59 86.6564,-59 268.913,-59 268.913,-59"/>
<polygon fill="#000000" stroke="#000000" points="276.913,-59 268.913,-62.6001 272.913,-59 268.913,-59.0001 268.913,-59.0001 268.913,-59.0001 272.913,-59 268.913,-55.4001 276.913,-59 276.913,-59"/>
</g>
<!-- Networks Neural Probabilistic (PNN) -->
<g id="node3" class="node">
<title>Networks Neural Probabilistic (PNN)</title>
<polygon fill="none" stroke="#000000" points="482.8086,-131 273.1706,-131 273.1706,-95 482.8086,-95 482.8086,-131"/>
<text text-anchor="middle" x="377.9896" y="-109.4" font-family="Arial" font-size="12.00" fill="#000000">Networks Neural Probabilistic (PNN)</text>
</g>
<!-- FNN&#45;&gt;Networks Neural Probabilistic (PNN) -->
<g id="edge2" class="edge">
<title>FNN-&gt;Networks Neural Probabilistic (PNN)</title>
<path fill="none" stroke="#000000" d="M157.6564,-175.6198C157.6564,-151.7215 157.6564,-113 157.6564,-113 157.6564,-113 265.3078,-113 265.3078,-113"/>
<polygon fill="#000000" stroke="#000000" points="273.3078,-113 265.3078,-116.6001 269.3078,-113 265.3078,-113.0001 265.3078,-113.0001 265.3078,-113.0001 269.3078,-113 265.3078,-109.4001 273.3078,-113 273.3078,-113"/>
</g>
<!-- Networks Function Basis Radial (RBFN) -->
<g id="node4" class="node">
<title>Networks Function Basis Radial (RBFN)</title>
<polygon fill="none" stroke="#000000" points="492.8234,-185 263.1558,-185 263.1558,-149 492.8234,-149 492.8234,-185"/>
<text text-anchor="middle" x="377.9896" y="-163.4" font-family="Arial" font-size="12.00" fill="#000000">Networks Function Basis Radial (RBFN)</text>
</g>
<!-- FNN&#45;&gt;Networks Function Basis Radial (RBFN) -->
<g id="edge3" class="edge">
<title>FNN-&gt;Networks Function Basis Radial (RBFN)</title>
<path fill="none" stroke="#000000" d="M227.3998,-180.5C227.3998,-180.5 254.9323,-180.5 254.9323,-180.5"/>
<polygon fill="#000000" stroke="#000000" points="262.9323,-180.5 254.9323,-184.1001 258.9323,-180.5 254.9323,-180.5001 254.9323,-180.5001 254.9323,-180.5001 258.9323,-180.5 254.9322,-176.9001 262.9323,-180.5 262.9323,-180.5"/>
</g>
<!-- Perceptron Multilayer (MLP) -->
<g id="node5" class="node">
<title>Perceptron Multilayer (MLP)</title>
<polygon fill="none" stroke="#000000" points="460.8239,-239 295.1553,-239 295.1553,-203 460.8239,-203 460.8239,-239"/>
<text text-anchor="middle" x="377.9896" y="-217.4" font-family="Arial" font-size="12.00" fill="#000000">Perceptron Multilayer (MLP)</text>
</g>
<!-- FNN&#45;&gt;Perceptron Multilayer (MLP) -->
<g id="edge4" class="edge">
<title>FNN-&gt;Perceptron Multilayer (MLP)</title>
<path fill="none" stroke="#000000" d="M227.3998,-207.5C227.3998,-207.5 287.1986,-207.5 287.1986,-207.5"/>
<polygon fill="#000000" stroke="#000000" points="295.1986,-207.5 287.1986,-211.1001 291.1986,-207.5 287.1986,-207.5001 287.1986,-207.5001 287.1986,-207.5001 291.1986,-207.5 287.1985,-203.9001 295.1986,-207.5 295.1986,-207.5"/>
</g>
<!-- Adaline -->
<g id="node6" class="node">
<title>Adaline</title>
<polygon fill="none" stroke="#000000" points="406.0012,-293 349.978,-293 349.978,-257 406.0012,-257 406.0012,-293"/>
<text text-anchor="middle" x="377.9896" y="-271.4" font-family="Arial" font-size="12.00" fill="#000000">Adaline</text>
</g>
<!-- FNN&#45;&gt;Adaline -->
<g id="edge5" class="edge">
<title>FNN-&gt;Adaline</title>
<path fill="none" stroke="#000000" d="M157.6564,-212.3802C157.6564,-236.2785 157.6564,-275 157.6564,-275 157.6564,-275 341.636,-275 341.636,-275"/>
<polygon fill="#000000" stroke="#000000" points="349.636,-275 341.636,-278.6001 345.636,-275 341.636,-275.0001 341.636,-275.0001 341.636,-275.0001 345.636,-275 341.6359,-271.4001 349.636,-275 349.636,-275"/>
</g>
<!-- Perceptron -->
<g id="node7" class="node">
<title>Perceptron</title>
<polygon fill="none" stroke="#000000" points="415.1715,-347 340.8077,-347 340.8077,-311 415.1715,-311 415.1715,-347"/>
<text text-anchor="middle" x="377.9896" y="-325.4" font-family="Arial" font-size="12.00" fill="#000000">Perceptron</text>
</g>
<!-- FNN&#45;&gt;Perceptron -->
<g id="edge6" class="edge">
<title>FNN-&gt;Perceptron</title>
<path fill="none" stroke="#000000" d="M86.6564,-212.2067C86.6564,-249.0559 86.6564,-329 86.6564,-329 86.6564,-329 332.7961,-329 332.7961,-329"/>
<polygon fill="#000000" stroke="#000000" points="340.7961,-329 332.7962,-332.6001 336.7961,-329 332.7961,-329.0001 332.7961,-329.0001 332.7961,-329.0001 336.7961,-329 332.7961,-325.4001 340.7961,-329 340.7961,-329"/>
</g>
</g>
</svg>